<!DOCTYPE svg PUBLIC "-//W3C//DTD SVG 20010904//EN" "http://www.w3.org/TR/2001/REC-SVG-20010904/DTD/svg10.dtd">
<svg version="1.0" xmlns="http://www.w3.org/2000/svg" width="1022px" height="1144px" viewBox="0 0 10220 11440" preserveAspectRatio="xMidYMid meet">
<g id="layer101" fill="#2154a0" stroke="none">
<path d="M5000 3525 l0 -475 -545 0 -545 0 0 -515 0 -515 545 0 545 0 0 -505 0 -505 460 0 460 0 0 505 0 505 545 0 545 0 0 515 0 515 -545 0 -545 0 0 475 0 475 -460 0 -460 0 0 -475z"/>
</g>
<g id="layer102" fill="#d52a29" stroke="none">
<path d="M4127 11318 c-24 -133 -45 -326 -57 -535 -12 -195 -2 -509 24 -713 7 -58 12 -106 11 -107 -5 -7 -208 -44 -336 -62 -221 -31 -403 -42 -645 -40 l-220 1 -72 -36 c-137 -69 -408 -229 -582 -343 -660 -434 -1158 -920 -1533 -1495 -387 -594 -611 -1226 -689 -1943 -20 -183 -17 -686 5 -856 27 -211 26 -209 71 -98 55 134 222 472 307 619 333 580 698 1030 1136 1397 503 423 1084 777 1556 947 53 20 97 34 97 32 0 -2 -33 -28 -72 -58 -749 -552 -1135 -1305 -1078 -2103 10 -146 40 -332 63 -399 l14 -40 50 96 c259 493 1095 1191 2248 1878 260 155 550 365 654 473 l33 35 128 -107 c193 -162 276 -218 685 -467 1099 -666 1897 -1348 2132 -1823 l41 -84 11 39 c62 218 85 510 60 760 -65 674 -431 1272 -1063 1742 -56 41 -103 76 -106 79 -2 2 40 -12 94 -32 553 -199 1216 -617 1742 -1096 386 -351 747 -830 1052 -1394 77 -144 192 -385 242 -508 12 -32 26 -55 31 -50 4 4 16 69 26 143 26 194 26 763 0 965 -152 1170 -704 2150 -1662 2950 -300 251 -797 579 -1137 751 l-73 37 -215 -2 c-1005 -10 -1893 299 -2456 855 -173 170 -345 403 -447 601 -23 46 -45 83 -48 83 -3 0 -13 -42 -22 -92z"/>
<path d="M4940 5753 c-483 -46 -884 -175 -1271 -409 -756 -456 -1260 -1243 -1364 -2130 -20 -169 -19 -481 1 -654 148 -1279 1113 -2295 2384 -2509 334 -57 717 -50 1041 19 157 33 157 35 -3 37 -1166 17 -2166 845 -2406 1993 -40 191 -47 269 -46 525 1 223 4 266 27 395 168 940 813 1686 1707 1975 634 204 1311 149 1909 -157 244 -125 470 -295 676 -510 126 -132 128 -129 23 46 -221 366 -515 672 -872 908 -386 254 -832 414 -1294 463 -121 13 -414 18 -512 8z"/>
</g>
<g id="layer103" fill="#e74b31" stroke="none">
<path d="M2313 2506 c3 -32 7 -59 9 -61 16 -16 1032 -595 1043 -595 18 0 19 12 2 68 -10 32 -21 47 -49 62 -40 21 -921 529 -977 563 l-34 21 6 -58z"/>
<path d="M2333 2364 c3 -10 8 -30 11 -44 5 -21 97 -78 536 -330 292 -168 538 -307 546 -308 13 -3 15 1 10 22 -13 51 -26 76 -40 76 -8 0 -245 133 -527 296 -283 163 -520 299 -527 302 -10 3 -13 -1 -9 -14z"/>
<path d="M2366 2213 c42 -187 135 -437 237 -637 334 -655 895 -1146 1597 -1399 476 -172 1039 -211 1531 -107 157 33 157 35 -3 37 -929 13 -1775 546 -2193 1381 -36 72 -72 132 -79 132 -8 0 -255 140 -551 310 -295 171 -538 310 -541 310 -2 0 -2 -12 2 -27z"/>
</g>


</svg>